<svg width="49" height="39" viewBox="0 0 49 39" fill="none" xmlns="http://www.w3.org/2000/svg">
<path d="M4.9 39C3.5525 39 2.39855 38.5222 1.43815 37.5667C0.477754 36.6112 -0.00162917 35.464 4.15959e-06 34.125V4.875C4.15959e-06 3.53438 0.480204 2.38632 1.4406 1.43082C2.401 0.475316 3.55414 -0.00162086 4.9 4.13837e-06H44.1C45.4475 4.13837e-06 46.6014 0.477754 47.5618 1.43325C48.5222 2.38875 49.0016 3.536 49 4.875V34.125C49 35.4656 48.5198 36.6137 47.5594 37.5692C46.599 38.5247 45.4459 39.0016 44.1 39H4.9ZM24.5 21.9375L4.9 9.75V34.125H44.1V9.75L24.5 21.9375ZM24.5 17.0625L44.1 4.875H4.9L24.5 17.0625ZM4.9 9.75V4.875V34.125V9.75Z" fill="white"/>
</svg>
