<svg width="53" height="53" viewBox="0 0 53 53" fill="none" xmlns="http://www.w3.org/2000/svg">
<path d="M14.6192 23.8279C17.7992 30.0775 22.9225 35.1787 29.1721 38.3808L34.0304 33.5225C34.6267 32.9262 35.51 32.7275 36.2829 32.9925C38.7562 33.8096 41.4283 34.2512 44.1667 34.2512C45.3812 34.2512 46.375 35.245 46.375 36.4596V44.1667C46.375 45.3812 45.3812 46.375 44.1667 46.375C23.4304 46.375 6.625 29.5696 6.625 8.83333C6.625 7.61875 7.61875 6.625 8.83333 6.625H16.5625C17.7771 6.625 18.7708 7.61875 18.7708 8.83333C18.7708 11.5937 19.2125 14.2438 20.0296 16.7171C20.2725 17.49 20.0958 18.3512 19.4775 18.9696L14.6192 23.8279Z" fill="white"/>
</svg>
